<svg xmlns="http://www.w3.org/2000/svg" width="210.53" height="210.561" viewBox="0 0 210.53 210.561">
  <g id="Iconly_Curved_Game" data-name="Iconly/Curved/Game" transform="translate(3.784 4.344)">
    <g id="Game" transform="translate(2.716 2.216)">
      <path id="Stroke_1" data-name="Stroke 1" d="M9.255,12.063V49.044" transform="translate(58.381 89.789)" fill="none" stroke="#337180" stroke-linecap="round" stroke-linejoin="round" stroke-width="13"/>
      <path id="Stroke_2" data-name="Stroke 2" d="M45.163,13.85H7.431" transform="translate(41.344 106.488)" fill="none" stroke="#337180" stroke-linecap="round" stroke-linejoin="round" stroke-width="13"/>
      <path id="Stroke_3" data-name="Stroke 3" d="M16.432,12.171H15.375" transform="translate(115.571 90.805)" fill="none" stroke="#337180" stroke-linecap="round" stroke-linejoin="round" stroke-width="13"/>
      <path id="Stroke_4" data-name="Stroke 4" d="M18.163,15.583H17.106" transform="translate(131.743 122.688)" fill="none" stroke="#337180" stroke-linecap="round" stroke-linejoin="round" stroke-width="13"/>
      <path id="Stroke_5" data-name="Stroke 5" d="M8.514,2.216h0A13.377,13.377,0,0,0,22.023,15.458H32.451a20.744,20.744,0,0,1,20.9,20.461V46.338" transform="translate(51.459 -2.216)" fill="none" stroke="#337180" stroke-linecap="round" stroke-linejoin="round" stroke-width="13"/>
      <path id="Stroke_7" data-name="Stroke 7" d="M200.246,83.17c0-57.512-24.687-76.689-98.76-76.689S2.716,25.659,2.716,83.17s24.688,76.69,98.77,76.69S200.246,140.693,200.246,83.17Z" transform="translate(-2.716 37.64)" fill="none" stroke="#337180" stroke-linecap="round" stroke-linejoin="round" stroke-width="13" fill-rule="evenodd"/>
    </g>
  </g>
</svg>
