<svg xmlns="http://www.w3.org/2000/svg" width="312.903" height="197.5" viewBox="0 0 312.903 197.5">
  <g id="sport" transform="translate(0 -94.416)">
    <g id="Groupe_8" data-name="Groupe 8" transform="translate(0 94.416)">
      <g id="Groupe_7" data-name="Groupe 7">
        <path id="Tracé_15" data-name="Tracé 15" d="M312.111,221.4A137.719,137.719,0,0,0,195.1,156.416q-2.322,0-4.64.081a99.562,99.562,0,0,0-21.971-33.249A98.736,98.736,0,1,0,142.735,281.6a137.8,137.8,0,0,0,169.376-54.662A5.231,5.231,0,0,0,312.111,221.4ZM179.458,157.324a138.078,138.078,0,0,0-32.316,7.689A87.936,87.936,0,0,1,164.8,134.585,89.235,89.235,0,0,1,179.458,157.324Zm-75.47-52.288A87.549,87.549,0,0,1,157.4,127.17a98.305,98.305,0,0,0-22.638,43.136q-3.836,1.868-7.559,3.974a137.994,137.994,0,0,0-19.778,13.654h-3.439v-82.9Zm-10.461,0v82.9H65.279a97.914,97.914,0,0,0-25.162-60.773A87.582,87.582,0,0,1,93.526,105.035Zm-60.818,29.54a87.516,87.516,0,0,1,22.09,53.36H10.619A87.516,87.516,0,0,1,32.708,134.575ZM10.619,198.4H54.8a87.516,87.516,0,0,1-22.09,53.361A87.519,87.519,0,0,1,10.619,198.4Zm82.907,82.9a87.58,87.58,0,0,1-53.409-22.126A97.911,97.911,0,0,0,65.279,198.4H93.526v2.721A138.2,138.2,0,0,0,78.094,221.4a5.231,5.231,0,0,0,0,5.536,138.186,138.186,0,0,0,15.432,20.28V281.3Zm-4.778-57.129a128.143,128.143,0,0,1,17.937-21.554v43.109A128.191,128.191,0,0,1,88.748,224.166Zm15.24,57.129V257.461A138.171,138.171,0,0,0,127.2,274.052c.987.56,1.986,1.1,2.987,1.631A88.742,88.742,0,0,1,103.988,281.3Zm169.072-26.5a127.04,127.04,0,0,1-155.913,0V193.54a127.038,127.038,0,0,1,155.913,0Zm10.461-9.074V202.611a128.217,128.217,0,0,1,17.937,21.554A128.1,128.1,0,0,1,283.52,245.72Z" transform="translate(0 -94.416)" fill="#337180"/>
      </g>
    </g>
    <g id="Groupe_10" data-name="Groupe 10" transform="translate(123.976 206.429)">
      <g id="Groupe_9" data-name="Groupe 9">
        <path id="Tracé_16" data-name="Tracé 16" d="M339.882,290.208h-10.1v-7.276a5.231,5.231,0,0,0-10.461,0v7.276H304.5v-7.276a5.231,5.231,0,0,0-10.461,0v7.276H279.217v-7.276a5.231,5.231,0,0,0-10.461,0v7.276H253.935v-7.276a5.231,5.231,0,0,0-10.461,0v7.276H228.65v-7.276a5.231,5.231,0,0,0-10.461,0v7.276h-10.1a5.231,5.231,0,1,0,0,10.461h10.1v7.275a5.231,5.231,0,0,0,10.461,0V300.67h14.823v7.275a5.231,5.231,0,1,0,10.461,0V300.67h14.821v7.275a5.231,5.231,0,0,0,10.461,0V300.67h14.821v7.275a5.231,5.231,0,1,0,10.461,0V300.67h14.822v7.275a5.231,5.231,0,1,0,10.461,0V300.67h10.1a5.231,5.231,0,1,0,0-10.461Z" transform="translate(-202.861 -277.702)" fill="#337180"/>
      </g>
    </g>
  </g>
</svg>
