<svg xmlns="http://www.w3.org/2000/svg" width="300" height="241.484" viewBox="0 0 300 241.484">
  <g id="travel" transform="translate(0 -29.258)">
    <g id="Groupe_12" data-name="Groupe 12">
      <g id="Groupe_11" data-name="Groupe 11">
        <path id="Tracé_17" data-name="Tracé 17" d="M99.41,95.7,96,82.922A191.491,191.491,0,0,0,74.154,90.2l4.929,12.274A178.713,178.713,0,0,1,99.41,95.7Z" fill="#337180"/>
        <path id="Tracé_18" data-name="Tracé 18" d="M59.714,111.641l-6.364-11.6A192.842,192.842,0,0,0,33.868,112.32l7.711,10.746A179.925,179.925,0,0,1,59.714,111.641Z" fill="#337180"/>
        <path id="Tracé_19" data-name="Tracé 19" d="M0,143.421l10.054,8.593a177.975,177.975,0,0,1,14.888-15.422L16,126.849A190.794,190.794,0,0,0,0,143.421Z" fill="#337180"/>
        <path id="Tracé_20" data-name="Tracé 20" d="M285.464,138.1l-9.739,8.947a179.453,179.453,0,0,1,13.528,16.632L300,155.966A191.939,191.939,0,0,0,285.464,138.1Z" fill="#337180"/>
        <path id="Tracé_21" data-name="Tracé 21" d="M243.18,119.253a177.917,177.917,0,0,1,17.115,12.909l8.588-10.058a189.919,189.919,0,0,0-18.4-13.874Z" fill="#337180"/>
        <path id="Tracé_22" data-name="Tracé 22" d="M230.536,96.687a191.217,191.217,0,0,0-21.186-9.029l-4.44,12.459a177.21,177.21,0,0,1,19.714,8.4Z" fill="#337180"/>
        <path id="Tracé_23" data-name="Tracé 23" d="M110.915,105.6l8.989,0L127.4,94.244l14.428.1-9.084,31.32v.741a7.183,7.183,0,0,0,7.173,7.175h13.032l20.681-38.354,15.984.529c8.273,0,15.005-6.492,15.005-14.467a14.1,14.1,0,0,0-4.5-10.334,15.313,15.313,0,0,0-10.665-4.133h-.013l-15.951.533L152.95,29.262l-13.054,0a7.189,7.189,0,0,0-7.155,7.177v.738l9.011,31.07-14.489.126L119.9,57.23l-8.983,0a6.7,6.7,0,0,0-6.69,6.688v35A6.692,6.692,0,0,0,110.915,105.6Zm3.714-37.467h0L121.7,78.827l33.877-.293L144.3,39.667h2.434l20.657,38.3,22.224-.743a4.853,4.853,0,0,1,3.353,1.29,3.794,3.794,0,0,1,1.239,2.766,4.312,4.312,0,0,1-4.424,4.065l-22.255-.736-20.8,38.559H144.3l11.35-39.138L121.82,83.8l-7.191,10.9V68.136Z" fill="#337180"/>
        <path id="Tracé_24" data-name="Tracé 24" d="M171.3,156.619A118.576,118.576,0,0,0,145,153.645,118.022,118.022,0,0,0,27.1,270.741H40.332a105.279,105.279,0,0,1,1.36-15.818c7.438,1.907,15.1,4.966,17.562,6.975-.115.853-.247,1.717-.381,2.588-.3,1.929-.619,4.063-.752,6.256h13.27c.139-1.5.375-3.079.553-4.241.245-1.594.487-3.181.639-4.715.822-8.306-8.6-14.948-27.96-19.76a104.055,104.055,0,0,1,75.16-72.107,40.862,40.862,0,0,0-4.215,14.469c-.322,2.919-.741,5.555-1.109,7.876-1.481,9.36-3.013,19.039,9.644,24.673a47.288,47.288,0,0,0,16.052,4.111,36.78,36.78,0,0,1,5.467.849c.641,2.149.317,7.4.187,9.5-.165,2.665-.333,5.385.481,7.607a68.974,68.974,0,0,0,15.3,31.734H181.5c-19.134-12.492-22.182-33.848-22.308-34.787l-.271-2.178c.026-.516.06-1.08.09-1.563.425-6.884,1.219-19.705-8.6-22.7a44.688,44.688,0,0,0-8.875-1.609,34.149,34.149,0,0,1-12.051-3.035c-3.393-1.512-3.393-1.512-1.966-10.528.39-2.467.833-5.266,1.188-8.493a31.758,31.758,0,0,1,8.313-18.658c2.634-.2,5.29-.315,7.971-.315a105.4,105.4,0,0,1,23.373,2.641,104.843,104.843,0,0,1,81.489,98.983c-1.1.721-2.469,1.481-3.941,2.246h17.174A117.955,117.955,0,0,0,171.3,156.619Z" fill="#337180"/>
      </g>
    </g>
  </g>
</svg>
